<?xml version="1.0" encoding="utf-8"?>
<!-- Generator: Adobe Illustrator 24.1.0, SVG Export Plug-In . SVG Version: 6.00 Build 0)  -->
<svg version="1.1" id="Layer_1" xmlns="http://www.w3.org/2000/svg" xmlns:xlink="http://www.w3.org/1999/xlink" x="0px" y="0px"
	 viewBox="0 0 75.3 120.5" style="enable-background:new 0 0 75.3 120.5;" xml:space="preserve">
<style type="text/css">
	.st0{clip-path:url(#SVGID_2_);}
	.st1{fill:url(#SVGID_3_);}
	.st2{opacity:0.1;}
	.st3{display:none;fill:none;}
</style>
<g>
	<defs>
		<path id="SVGID_1_" d="M74.4,74.5c0-0.1-0.1-0.2-0.1-0.3c0,0,0,0,0,0c0,0,0,0,0-0.1c-0.4-0.6-1-1-1.8-1H53.9L40.7,44.8l6.4-13.6
			l2.8,1.3c1,0.5,2.3-0.1,2.9-1.3l4-8.6l0,0l6.7-14.3l0,0c0.2-0.5,0-1.1-0.5-1.3c-0.5-0.2-1.1-0.1-1.3,0.4l-6.1,13.1
			c-0.2,0.5-0.8,0.7-1.3,0.4c-0.5-0.2-0.7-0.8-0.5-1.3l0.5-1l5.6-12.1c0.2-0.5,0-1.1-0.5-1.3s-1.1,0-1.3,0.4l-5.6,12.1l-0.5,1
			c-0.2,0.5-0.8,0.7-1.3,0.4c-0.5-0.2-0.7-0.8-0.5-1.3l0.5-1L56,4.8c0.2-0.5,0-1.1-0.5-1.3s-1.1,0-1.3,0.4L48.5,16L48,17
			c-0.2,0.5-0.8,0.7-1.3,0.4c-0.5-0.2-0.7-0.8-0.5-1.3l0.5-1L52.3,3c0.2-0.5,0-1.1-0.5-1.3c-0.5-0.2-1.1,0-1.3,0.4L40,24.5
			c0,0,0,0,0,0l-0.2,0.5c-0.6,1.2-0.2,2.6,0.9,3.1l2.7,1.3l-4.9,10.5L33.4,29c2.5-2.9,2.5-9.1-0.3-15.1c-3.3-7.2-9.4-11.4-13.5-9.5
			c-4.1,1.9-4.7,9.3-1.4,16.4c2.8,6,7.5,10,11.4,10l6.5,14L23,73.1H2.9c-1.1,0-2,0.9-2,2c0,1.1,0.9,2,2,2h18.2L4,113.7
			c-0.5,1,0,2.2,1,2.7c1,0.5,2.2,0,2.7-1l17.8-38.3H42c0,0,0,0,0,0l4.1,7.1c0.4,0.7,1.2,1.1,1.9,1c0.3,0,0.6,0,0.9-0.1l5.3-1.8
			l14.9,32c0.5,1,1.7,1.5,2.7,1c1-0.5,1.5-1.7,1-2.7L58.1,82.1l14.9-5C74.1,76.7,74.7,75.6,74.4,74.5z M27.5,73.1l11-23.5l11,23.5
			H27.5z"/>
	</defs>
	<clipPath id="SVGID_2_">
		<use xlink:href="#SVGID_1_"  style="overflow:visible;"/>
	</clipPath>
	<g class="st0">
		
			<linearGradient id="SVGID_3_" gradientUnits="userSpaceOnUse" x1="-22.1573" y1="62.4128" x2="98.2955" y2="62.4128" gradientTransform="matrix(6.123234e-17 1 -1 6.123234e-17 100.0543 22.1573)">
			<stop  offset="0" style="stop-color:#B7B7B7"/>
			<stop  offset="5.429049e-03" style="stop-color:#B4B4B4"/>
			<stop  offset="4.077040e-02" style="stop-color:#A4A4A4"/>
			<stop  offset="6.807600e-02" style="stop-color:#9E9E9E"/>
			<stop  offset="0.1167" style="stop-color:#B0B0B0"/>
			<stop  offset="0.1599" style="stop-color:#C3C3C3"/>
			<stop  offset="0.2419" style="stop-color:#EFEFEF"/>
			<stop  offset="0.2814" style="stop-color:#F5F5F5"/>
			<stop  offset="0.3203" style="stop-color:#EEEEEE"/>
			<stop  offset="0.4064" style="stop-color:#CDCDCD"/>
			<stop  offset="0.4095" style="stop-color:#CCCCCC"/>
			<stop  offset="0.4543" style="stop-color:#C3C3C3"/>
			<stop  offset="0.4924" style="stop-color:#C7C7C7"/>
			<stop  offset="0.5068" style="stop-color:#CBCBCB"/>
			<stop  offset="0.6149" style="stop-color:#EBEBEB"/>
			<stop  offset="0.6715" style="stop-color:#F5F5F5"/>
			<stop  offset="0.75" style="stop-color:#E5E5E5"/>
			<stop  offset="0.8837" style="stop-color:#AEAEAE"/>
			<stop  offset="0.9185" style="stop-color:#A3A3A3"/>
			<stop  offset="0.9608" style="stop-color:#909090"/>
			<stop  offset="1" style="stop-color:#757575"/>
		</linearGradient>
		<polygon class="st1" points="0,120.5 0,0 75.3,0 75.3,120.5 		"/>
		
			<rect x="-22.6" y="22.6" transform="matrix(-1.836970e-16 1 -1 -1.836970e-16 97.8679 22.5849)" class="st2" width="120.5" height="75.3"/>
	</g>
</g>
<path class="st3" d="M19.6,4.3c-4.1,1.9-4.7,9.3-1.4,16.4c2.8,6,7.5,10,11.4,10l39.5,84.7c0.5,1,1.7,1.5,2.7,1s1.5-1.7,1-2.7
	L33.4,29c2.5-2.9,2.5-9.1-0.3-15.1C29.7,6.7,23.7,2.4,19.6,4.3z M63.4,8.2c0.2-0.5,0-1.1-0.5-1.3c-0.5-0.2-1.1-0.1-1.3,0.4
	l-6.1,13.1c-0.2,0.5-0.8,0.7-1.3,0.4c-0.5-0.2-0.7-0.8-0.5-1.3l0.5-1l5.6-12.1c0.2-0.5,0-1.1-0.5-1.3s-1.1,0-1.3,0.4l-5.6,12.1
	l-0.5,1c-0.2,0.5-0.8,0.7-1.3,0.4c-0.5-0.2-0.7-0.8-0.5-1.3l0.5-1L56,4.8c0.2-0.5,0-1.1-0.5-1.3c-0.5-0.2-1.1,0-1.3,0.4L48.5,16
	L48,17c-0.2,0.5-0.8,0.7-1.3,0.4c-0.5-0.2-0.7-0.8-0.5-1.3l0.5-1L52.3,3c0.2-0.5,0-1.1-0.5-1.3c-0.5-0.2-1.1,0-1.3,0.4L40,24.5
	c0,0,0,0,0,0l-0.2,0.5c-0.6,1.2-0.2,2.6,0.9,3.1l2.7,1.3L4,113.7c-0.5,1,0,2.2,1,2.7s2.2,0,2.7-1l39.3-84.3l2.8,1.3
	c1,0.5,2.3-0.1,2.9-1.3l4-8.6l0,0L63.4,8.2L63.4,8.2z M72.4,73.1H2.9c-1.1,0-2,0.9-2,2c0,1.1,0.9,2,2,2H42c0,0,0,0,0,0l4.1,7.1
	c0.4,0.7,1.2,1.1,1.9,1c0.3,0,0.6,0,0.9-0.1L73,77.1c1.1-0.4,1.7-1.5,1.4-2.6c0-0.1-0.1-0.2-0.1-0.3c0,0,0,0,0,0c0,0,0,0,0-0.1
	C73.8,73.5,73.2,73.1,72.4,73.1z"/>
</svg>
